<?xml version="1.0" encoding="UTF-8" standalone="no"?>
<!-- Created with Inkscape (http://www.inkscape.org/) -->

<svg xmlns:dc="http://purl.org/dc/elements/1.1/" xmlns:cc="http://creativecommons.org/ns#" xmlns:rdf="http://www.w3.org/1999/02/22-rdf-syntax-ns#" xmlns:svg="http://www.w3.org/2000/svg" xmlns="http://www.w3.org/2000/svg" xmlns:sodipodi="http://sodipodi.sourceforge.net/DTD/sodipodi-0.dtd" xmlns:inkscape="http://www.inkscape.org/namespaces/inkscape" width="81.430809mm" height="44.918903mm" viewBox="0 0 81.43081 44.918904" version="1.1" id="svg8" inkscape:version="0.92.4 (unknown)" sodipodi:docname="logo-curve.svg" inkscape:export-filename="/home/kuba/projects/jcubic/battery/logo.svg.png" inkscape:export-xdpi="96" inkscape:export-ydpi="96">
  <defs id="defs2" />
  <sodipodi:namedview id="base" pagecolor="#ffffff" bordercolor="#666666" borderopacity="1.0" inkscape:pageopacity="0.0" inkscape:pageshadow="2" inkscape:zoom="1.979899" inkscape:cx="137.03697" inkscape:cy="114.97724" inkscape:document-units="mm" inkscape:current-layer="layer1" showgrid="false" inkscape:window-width="1530" inkscape:window-height="786" inkscape:window-x="158" inkscape:window-y="87" inkscape:window-maximized="0" inkscape:snap-global="true" fit-margin-top="0" fit-margin-left="0" fit-margin-right="0" fit-margin-bottom="0" inkscape:snap-bbox="true" />
  <metadata id="metadata5">
    <rdf:RDF>
      <cc:Work rdf:about="">
        <dc:format>image/svg+xml</dc:format>
        <dc:type rdf:resource="http://purl.org/dc/dcmitype/StillImage" />
        <dc:title></dc:title>
      </cc:Work>
    </rdf:RDF>
  </metadata>
  <g inkscape:label="Layer 1" inkscape:groupmode="layer" id="layer1" transform="translate(-6.2064037,-119.90382)">
    <g aria-label="BATTERY" style="font-style:normal;font-variant:normal;font-weight:normal;font-stretch:normal;font-size:17.25160027px;line-height:1.25;font-family:'Vice City Sans';-inkscape-font-specification:'Vice City Sans';font-variant-ligatures:normal;font-variant-position:normal;font-variant-caps:normal;font-variant-numeric:normal;font-variant-alternates:normal;font-feature-settings:normal;text-indent:0;text-align:start;text-decoration:none;text-decoration-line:none;text-decoration-style:solid;text-decoration-color:#000000;letter-spacing:0px;word-spacing:0px;text-transform:none;writing-mode:lr-tb;direction:ltr;text-orientation:mixed;dominant-baseline:auto;baseline-shift:baseline;text-anchor:start;white-space:normal;shape-padding:0;opacity:1;vector-effect:none;fill:#000000;fill-opacity:1;stroke:none;stroke-width:0.43129006;stroke-linecap:butt;stroke-linejoin:miter;stroke-miterlimit:4;stroke-dasharray:none;stroke-dashoffset:0;stroke-opacity:1" id="text4524">
      <path d="m 10.33615,157.53697 h 3.484823 c 0.931587,0 2.25996,0.5693 2.25996,1.65615 0,1.13861 -1.328373,1.44914 -2.25996,1.44914 H 10.33615 Z m 0,-4.77869 h 3.484823 c 1.449135,0 1.897676,0.93158 1.897676,1.48364 0,0.69006 -0.465793,1.29387 -1.897676,1.29387 H 10.33615 Z m 3.484823,-2.07019 H 8.0934421 v 12.07612 h 5.7275309 c 2.501482,0 4.51992,-0.86258 4.51992,-3.55383 0,-0.75907 -0.517548,-2.25996 -1.93218,-2.69125 1.121354,-0.5003 1.569896,-1.39738 1.569896,-2.32897 0,-2.43248 -1.776915,-3.50207 -4.157636,-3.50207 z" style="font-style:normal;font-variant:normal;font-weight:normal;font-stretch:normal;font-size:17.25160027px;line-height:1.25;font-family:'Vice City Sans';-inkscape-font-specification:'Vice City Sans';font-variant-ligatures:normal;font-variant-position:normal;font-variant-caps:normal;font-variant-numeric:normal;font-variant-alternates:normal;font-feature-settings:normal;text-indent:0;text-align:start;text-decoration-line:none;text-decoration-style:solid;text-decoration-color:#000000;letter-spacing:0px;word-spacing:0px;text-transform:none;writing-mode:lr-tb;direction:ltr;text-orientation:mixed;dominant-baseline:auto;text-anchor:start;white-space:normal;shape-padding:0;vector-effect:none;fill:#000000;fill-opacity:1;stroke:none;stroke-width:0.43129006;stroke-linecap:butt;stroke-linejoin:miter;stroke-miterlimit:4;stroke-dasharray:none;stroke-dashoffset:0;stroke-opacity:1" id="path864" />
      <path d="m 29.547424,162.76421 h 2.484231 l -5.417003,-12.07612 h -2.48423 l -5.417003,12.07612 h 2.466979 l 1.035096,-2.27722 h 6.314086 z m -1.932179,-4.39916 h -4.485416 l 2.242708,-5.14098 z" style="font-style:normal;font-variant:normal;font-weight:normal;font-stretch:normal;font-size:17.25160027px;line-height:1.25;font-family:'Vice City Sans';-inkscape-font-specification:'Vice City Sans';font-variant-ligatures:normal;font-variant-position:normal;font-variant-caps:normal;font-variant-numeric:normal;font-variant-alternates:normal;font-feature-settings:normal;text-indent:0;text-align:start;text-decoration-line:none;text-decoration-style:solid;text-decoration-color:#000000;letter-spacing:0px;word-spacing:0px;text-transform:none;writing-mode:lr-tb;direction:ltr;text-orientation:mixed;dominant-baseline:auto;text-anchor:start;white-space:normal;shape-padding:0;vector-effect:none;fill:#000000;fill-opacity:1;stroke:none;stroke-width:0.43129006;stroke-linecap:butt;stroke-linejoin:miter;stroke-miterlimit:4;stroke-dasharray:none;stroke-dashoffset:0;stroke-opacity:1" id="path866" />
      <path d="m 34.197269,162.76421 h 2.277211 v -10.00593 h 3.829856 v -2.07019 h -9.936922 v 2.07019 h 3.829855 z" style="font-style:normal;font-variant:normal;font-weight:normal;font-stretch:normal;font-size:17.25160027px;line-height:1.25;font-family:'Vice City Sans';-inkscape-font-specification:'Vice City Sans';font-variant-ligatures:normal;font-variant-position:normal;font-variant-caps:normal;font-variant-numeric:normal;font-variant-alternates:normal;font-feature-settings:normal;text-indent:0;text-align:start;text-decoration-line:none;text-decoration-style:solid;text-decoration-color:#000000;letter-spacing:0px;word-spacing:0px;text-transform:none;writing-mode:lr-tb;direction:ltr;text-orientation:mixed;dominant-baseline:auto;text-anchor:start;white-space:normal;shape-padding:0;vector-effect:none;fill:#000000;fill-opacity:1;stroke:none;stroke-width:0.43129006;stroke-linecap:butt;stroke-linejoin:miter;stroke-miterlimit:4;stroke-dasharray:none;stroke-dashoffset:0;stroke-opacity:1" id="path868" />
      <path d="m 44.811046,162.76421 h 2.277212 v -10.00593 h 3.829855 v -2.07019 h -9.936922 v 2.07019 h 3.829855 z" style="font-style:normal;font-variant:normal;font-weight:normal;font-stretch:normal;font-size:17.25160027px;line-height:1.25;font-family:'Vice City Sans';-inkscape-font-specification:'Vice City Sans';font-variant-ligatures:normal;font-variant-position:normal;font-variant-caps:normal;font-variant-numeric:normal;font-variant-alternates:normal;font-feature-settings:normal;text-indent:0;text-align:start;text-decoration-line:none;text-decoration-style:solid;text-decoration-color:#000000;letter-spacing:0px;word-spacing:0px;text-transform:none;writing-mode:lr-tb;direction:ltr;text-orientation:mixed;dominant-baseline:auto;text-anchor:start;white-space:normal;shape-padding:0;vector-effect:none;fill:#000000;fill-opacity:1;stroke:none;stroke-width:0.43129006;stroke-linecap:butt;stroke-linejoin:miter;stroke-miterlimit:4;stroke-dasharray:none;stroke-dashoffset:0;stroke-opacity:1" id="path870" />
      <path d="M 61.307619,160.5215 H 54.52774 v -2.72575 h 6.538357 V 155.6738 H 54.52774 v -2.77751 h 6.779879 v -2.2082 h -9.039838 v 12.07612 h 9.039838 z" style="font-style:normal;font-variant:normal;font-weight:normal;font-stretch:normal;font-size:17.25160027px;line-height:1.25;font-family:'Vice City Sans';-inkscape-font-specification:'Vice City Sans';font-variant-ligatures:normal;font-variant-position:normal;font-variant-caps:normal;font-variant-numeric:normal;font-variant-alternates:normal;font-feature-settings:normal;text-indent:0;text-align:start;text-decoration-line:none;text-decoration-style:solid;text-decoration-color:#000000;letter-spacing:0px;word-spacing:0px;text-transform:none;writing-mode:lr-tb;direction:ltr;text-orientation:mixed;dominant-baseline:auto;text-anchor:start;white-space:normal;shape-padding:0;vector-effect:none;fill:#000000;fill-opacity:1;stroke:none;stroke-width:0.43129006;stroke-linecap:butt;stroke-linejoin:miter;stroke-miterlimit:4;stroke-dasharray:none;stroke-dashoffset:0;stroke-opacity:1" id="path872" />
      <path d="m 73.764082,162.60894 -3.657339,-4.81319 c 2.294462,-0.4658 3.053533,-1.79417 3.053533,-3.45032 0,-2.08745 -1.500889,-3.64009 -4.347403,-3.65734 -1.914928,0 -3.829856,-0.0173 -5.744783,-0.0173 v 12.09338 h 2.277211 v -4.72694 h 2.190953 l 3.519327,4.72694 h 2.708501 z m -4.951209,-9.79891 c 1.431882,0 2.070192,0.62106 2.070192,1.58715 0,0.96609 -0.621058,1.58715 -2.070192,1.58715 h -3.467572 v -3.1743 z" style="font-style:normal;font-variant:normal;font-weight:normal;font-stretch:normal;font-size:17.25160027px;line-height:1.25;font-family:'Vice City Sans';-inkscape-font-specification:'Vice City Sans';font-variant-ligatures:normal;font-variant-position:normal;font-variant-caps:normal;font-variant-numeric:normal;font-variant-alternates:normal;font-feature-settings:normal;text-indent:0;text-align:start;text-decoration-line:none;text-decoration-style:solid;text-decoration-color:#000000;letter-spacing:0px;word-spacing:0px;text-transform:none;writing-mode:lr-tb;direction:ltr;text-orientation:mixed;dominant-baseline:auto;text-anchor:start;white-space:normal;shape-padding:0;vector-effect:none;fill:#000000;fill-opacity:1;stroke:none;stroke-width:0.43129006;stroke-linecap:butt;stroke-linejoin:miter;stroke-miterlimit:4;stroke-dasharray:none;stroke-dashoffset:0;stroke-opacity:1" id="path874" />
      <path d="m 76.727585,150.68809 h -2.708501 v 0.10351 l 4.64068,6.98689 v 4.98572 h 2.277212 v -4.98572 l 4.813196,-6.98689 v -0.10351 h -2.743004 l -3.208798,4.98571 z" style="font-style:normal;font-variant:normal;font-weight:normal;font-stretch:normal;font-size:17.25160027px;line-height:1.25;font-family:'Vice City Sans';-inkscape-font-specification:'Vice City Sans';font-variant-ligatures:normal;font-variant-position:normal;font-variant-caps:normal;font-variant-numeric:normal;font-variant-alternates:normal;font-feature-settings:normal;text-indent:0;text-align:start;text-decoration-line:none;text-decoration-style:solid;text-decoration-color:#000000;letter-spacing:0px;word-spacing:0px;text-transform:none;writing-mode:lr-tb;direction:ltr;text-orientation:mixed;dominant-baseline:auto;text-anchor:start;white-space:normal;shape-padding:0;vector-effect:none;fill:#000000;fill-opacity:1;stroke:none;stroke-width:0.43129006;stroke-linecap:butt;stroke-linejoin:miter;stroke-miterlimit:4;stroke-dasharray:none;stroke-dashoffset:0;stroke-opacity:1" id="path876" />
    </g>
    <g id="g872">
      <path id="rect4518" d="m 20.229989,121.96261 c -1.564432,0 -2.8236,1.25917 -2.8236,2.8236 v 19.76727 c 0,1.56443 1.259168,2.8236 2.8236,2.8236 h 61.843252 c 1.564434,0 2.823602,-1.25917 2.823602,-2.8236 v -3.33572 h 0.437181 c 0.703321,0 1.269175,-0.56585 1.269175,-1.26917 V 129.3911 c 0,-0.70332 -0.565854,-1.26918 -1.269175,-1.26918 h -0.437181 v -3.33571 c 0,-1.56443 -1.259168,-2.8236 -2.823602,-2.8236 z" style="opacity:1;vector-effect:none;fill:#000000;fill-opacity:1;stroke:none;stroke-width:0.5;stroke-linecap:butt;stroke-linejoin:miter;stroke-miterlimit:4;stroke-dasharray:none;stroke-dashoffset:0;stroke-opacity:1" inkscape:connector-curvature="0" />
      <path inkscape:connector-curvature="0" id="rect4520" d="M 55.824861,121.96234 H 10.064308 c -1.5644288,0 -2.8238903,1.25947 -2.8238903,2.8239 v 19.76727 c 0,1.56443 1.2594615,2.8239 2.8238903,2.8239 h 45.760553 z" style="opacity:1;vector-effect:none;fill:#000000;fill-opacity:1;stroke:none;stroke-width:0.21131372;stroke-linecap:butt;stroke-linejoin:miter;stroke-miterlimit:4;stroke-dasharray:none;stroke-dashoffset:0;stroke-opacity:1" />
      <g aria-label="R6" style="font-style:normal;font-variant:normal;font-weight:normal;font-stretch:normal;font-size:22.39744949px;line-height:1.25;font-family:'Russo One';-inkscape-font-specification:'Russo One';letter-spacing:0px;word-spacing:0px;fill:#f9f9f9;fill-opacity:1;stroke:none;stroke-width:0.55993623" id="text4528">
        <path d="m 17.302377,126.63117 h 9.406929 q 2.351732,0 3.404413,1.07508 1.075077,1.05268 1.075077,3.40441 v 2.01577 q 0,1.85899 -0.627129,2.88927 -0.604731,1.03029 -1.948578,1.36625 l 2.799682,4.92744 h -4.367503 l -2.575707,-4.70347 h -3.135643 v 4.70347 h -4.031541 z m 9.854878,4.47949 q 0,-1.34384 -1.343847,-1.34384 h -4.47949 v 4.70346 h 4.47949 q 1.343847,0 1.343847,-1.34385 z" style="font-style:normal;font-variant:normal;font-weight:normal;font-stretch:normal;font-family:'Russo One';-inkscape-font-specification:'Russo One';fill:#f9f9f9;stroke:none;stroke-width:0.55993623" id="path824" />
        <path d="m 37.027882,132.67848 q 0.649526,-0.13438 1.321449,-0.22397 0.582334,-0.0896 1.23186,-0.15678 0.671924,-0.0672 1.254257,-0.0672 h 1.567822 q 1.523026,0 2.441322,0.9183 0.918295,0.9183 0.918295,2.44132 v 2.91167 q 0,2.03817 -1.030283,3.04605 -1.030282,0.98549 -3.225232,0.98549 h -4.255516 q -2.19495,0 -3.225232,-0.98549 -1.030283,-1.00788 -1.030283,-3.04605 v -7.83911 q 0,-2.19495 1.030283,-3.22523 1.030282,-1.03028 3.225232,-1.03028 1.097475,0 2.37413,0.0672 1.299052,0.0672 2.418924,0.15678 1.299053,0.0896 2.598105,0.22398 v 3.02365 q -1.23186,-0.0672 -2.441322,-0.15678 -0.515142,-0.0224 -1.075078,-0.0448 -0.537539,-0.0448 -1.075078,-0.0672 -0.537538,-0.0448 -1.030282,-0.0448 -0.470347,-0.0224 -0.873501,-0.0224 -0.515141,0 -0.828705,0.31357 -0.291167,0.29116 -0.291167,0.8063 z m 2.687694,2.6877 q -0.470347,0 -0.963091,0.0448 -0.470346,0.0224 -0.851103,0.0672 -0.447949,0.0672 -0.8735,0.11198 v 2.46372 q 0,1.34385 1.343847,1.34385 h 2.01577 q 1.343847,0 1.343847,-1.34385 v -1.90378 q 0,-0.33596 -0.223974,-0.55994 -0.223975,-0.22397 -0.559937,-0.22397 z" style="font-style:normal;font-variant:normal;font-weight:normal;font-stretch:normal;font-family:'Russo One';-inkscape-font-specification:'Russo One';fill:#f9f9f9;stroke:none;stroke-width:0.55993623" id="path826" />
      </g>
      <path d="m 55.824219,122.29883 v 24.74219 h 26.248047 c 1.38396,0 2.488281,-1.10433 2.488281,-2.48829 v -3.33398 a 0.33620796,0.33620796 0 0 1 0.335937,-0.33594 h 0.4375 c 0.522896,0 0.933594,-0.4107 0.933594,-0.93359 v -10.5586 c 0,-0.52288 -0.410701,-0.93359 -0.933594,-0.93359 h -0.4375 a 0.33620796,0.33620796 0 0 1 -0.335937,-0.33594 v -3.33398 c 0,-1.38397 -1.10432,-2.48828 -2.488281,-2.48828 z" id="path823" style="opacity:1;vector-effect:none;fill:#e4a432;fill-opacity:1;stroke:none;stroke-width:0.5;stroke-linecap:butt;stroke-linejoin:miter;stroke-miterlimit:4;stroke-dasharray:none;stroke-dashoffset:0;stroke-opacity:1" inkscape:original="M 55.488281 121.96289 L 55.488281 147.37695 L 82.072266 147.37695 C 83.6367 147.37695 84.896484 146.11716 84.896484 144.55273 L 84.896484 141.21875 L 85.333984 141.21875 C 86.037305 141.21875 86.603516 140.65254 86.603516 139.94922 L 86.603516 129.39062 C 86.603516 128.68731 86.037305 128.12109 85.333984 128.12109 L 84.896484 128.12109 L 84.896484 124.78711 C 84.896484 123.22267 83.6367 121.96289 82.072266 121.96289 L 55.488281 121.96289 z " inkscape:radius="-0.33617434" sodipodi:type="inkscape:offset" />
      <path inkscape:connector-curvature="0" id="rect845" d="m 77.799054,132.97264 h -5.741158 v -5.74061 h -3.394463 v 5.74061 h -5.740611 v 3.39446 h 5.740611 v 5.74062 h 3.394463 v -5.74062 h 5.741158 z" style="opacity:1;vector-effect:none;fill:#000000;fill-opacity:1;stroke:none;stroke-width:0.21131372;stroke-linecap:butt;stroke-linejoin:miter;stroke-miterlimit:4;stroke-dasharray:none;stroke-dashoffset:0;stroke-opacity:1" />
      <rect transform="rotate(90)" y="-55.486126" x="122.31197" height="2.1498585" width="24.715826" id="rect850" style="opacity:1;vector-effect:none;fill:#ffffff;fill-opacity:1;stroke:none;stroke-width:0.22794116;stroke-linecap:butt;stroke-linejoin:miter;stroke-miterlimit:4;stroke-dasharray:none;stroke-dashoffset:0;stroke-opacity:1" />
      <g aria-label="BATTERY  COMPONENTS" transform="rotate(90)" style="font-style:normal;font-variant:normal;font-weight:normal;font-stretch:normal;font-size:1.71588671px;line-height:1.25;font-family:'Vice City Sans';-inkscape-font-specification:'Vice City Sans';letter-spacing:0px;word-spacing:0px;fill:#000000;fill-opacity:1;stroke:none;stroke-width:0.04289717" id="text866">
        <path d="m 124.59049,-54.325406 h 0.34661 c 0.0927,0 0.22478,0.05662 0.22478,0.164725 0,0.113249 -0.13213,0.144135 -0.22478,0.144135 h -0.34661 z m 0,-0.475301 h 0.34661 c 0.14413,0 0.18874,0.09266 0.18874,0.147567 0,0.06864 -0.0463,0.128691 -0.18874,0.128691 h -0.34661 z m 0.34661,-0.205906 h -0.56968 v 1.201121 h 0.56968 c 0.2488,0 0.44956,-0.08579 0.44956,-0.353473 0,-0.0755 -0.0515,-0.224781 -0.19218,-0.267678 0.11153,-0.04976 0.15614,-0.138987 0.15614,-0.231645 0,-0.24194 -0.17673,-0.348325 -0.41352,-0.348325 z" style="font-style:normal;font-variant:normal;font-weight:normal;font-stretch:normal;font-family:'Vice City Sans';-inkscape-font-specification:'Vice City Sans';stroke:none;stroke-width:0.04289717" id="path829" />
        <path d="m 126.50129,-53.805492 h 0.24709 l -0.53879,-1.201121 h -0.24709 l -0.53879,1.201121 h 0.24537 l 0.10296,-0.226497 h 0.62801 z m -0.19218,-0.437552 h -0.44613 l 0.22306,-0.511334 z" style="font-style:normal;font-variant:normal;font-weight:normal;font-stretch:normal;font-family:'Vice City Sans';-inkscape-font-specification:'Vice City Sans';stroke:none;stroke-width:0.04289717" id="path831" />
        <path d="m 126.96377,-53.805492 h 0.2265 v -0.995215 h 0.38093 v -0.205906 h -0.98835 v 0.205906 h 0.38092 z" style="font-style:normal;font-variant:normal;font-weight:normal;font-stretch:normal;font-family:'Vice City Sans';-inkscape-font-specification:'Vice City Sans';stroke:none;stroke-width:0.04289717" id="path833" />
        <path d="m 128.01945,-53.805492 h 0.22649 v -0.995215 h 0.38093 v -0.205906 h -0.98835 v 0.205906 h 0.38093 z" style="font-style:normal;font-variant:normal;font-weight:normal;font-stretch:normal;font-family:'Vice City Sans';-inkscape-font-specification:'Vice City Sans';stroke:none;stroke-width:0.04289717" id="path835" />
        <path d="m 129.66024,-54.028558 h -0.67435 v -0.27111 h 0.65032 v -0.211054 h -0.65032 v -0.276258 h 0.67435 v -0.219633 h -0.89913 v 1.201121 h 0.89913 z" style="font-style:normal;font-variant:normal;font-weight:normal;font-stretch:normal;font-family:'Vice City Sans';-inkscape-font-specification:'Vice City Sans';stroke:none;stroke-width:0.04289717" id="path837" />
        <path d="m 130.89919,-53.820935 -0.36377,-0.478733 c 0.22821,-0.04633 0.30371,-0.178452 0.30371,-0.343177 0,-0.207622 -0.14928,-0.362052 -0.4324,-0.363768 -0.19047,0 -0.38093,-0.0017 -0.57139,-0.0017 v 1.202837 h 0.22649 v -0.470153 h 0.21792 l 0.35004,0.470153 h 0.2694 z m -0.49246,-0.974624 c 0.14241,0 0.2059,0.06177 0.2059,0.157862 0,0.09609 -0.0618,0.157861 -0.2059,0.157861 h -0.3449 v -0.315723 z" style="font-style:normal;font-variant:normal;font-weight:normal;font-stretch:normal;font-family:'Vice City Sans';-inkscape-font-specification:'Vice City Sans';stroke:none;stroke-width:0.04289717" id="path839" />
        <path d="m 131.19394,-55.006613 h -0.26939 v 0.01029 l 0.46157,0.694934 v 0.495892 h 0.2265 v -0.495892 l 0.47873,-0.694934 v -0.01029 h -0.27282 l -0.31916,0.495891 z" style="font-style:normal;font-variant:normal;font-weight:normal;font-stretch:normal;font-family:'Vice City Sans';-inkscape-font-specification:'Vice City Sans';stroke:none;stroke-width:0.04289717" id="path841" />
        <path d="m 133.78426,-54.112636 c -0.0789,0.07893 -0.19733,0.121828 -0.30199,0.121828 -0.29685,0 -0.41182,-0.207622 -0.41353,-0.406665 -0.002,-0.200759 0.12354,-0.416961 0.41353,-0.416961 0.10466,0 0.21105,0.03603 0.28998,0.113249 l 0.151,-0.145851 c -0.12355,-0.121828 -0.27798,-0.1836 -0.44098,-0.1836 -0.43412,0 -0.63831,0.319155 -0.6366,0.633163 0.002,0.312291 0.19046,0.619435 0.6366,0.619435 0.1733,0 0.33288,-0.05662 0.45642,-0.178452 z" style="font-style:normal;font-variant:normal;font-weight:normal;font-stretch:normal;font-family:'Vice City Sans';-inkscape-font-specification:'Vice City Sans';stroke:none;stroke-width:0.04289717" id="path843" />
        <path d="m 134.63089,-55.030636 c -0.41524,0 -0.61772,0.31744 -0.61772,0.633163 0,0.315723 0.19561,0.619435 0.61772,0.619435 0.42211,0 0.61257,-0.310576 0.616,-0.621151 0.003,-0.314007 -0.20247,-0.631447 -0.616,-0.631447 z m 0,0.205907 c 0.28312,0 0.39637,0.226497 0.39294,0.428972 -0.003,0.197327 -0.10982,0.410096 -0.39294,0.410096 -0.28312,0 -0.38951,-0.211054 -0.39465,-0.408381 -0.005,-0.202474 0.11153,-0.430687 0.39465,-0.430687 z" style="font-style:normal;font-variant:normal;font-weight:normal;font-stretch:normal;font-family:'Vice City Sans';-inkscape-font-specification:'Vice City Sans';stroke:none;stroke-width:0.04289717" id="path845" />
        <path d="m 136.52893,-53.803777 h 0.2265 v -1.20112 h -0.32774 l -0.34146,0.815046 -0.34146,-0.815046 h -0.32945 v 1.20112 h 0.2265 v -0.873386 l 0.34832,0.873386 h 0.18189 l 0.3569,-0.87167 z" style="font-style:normal;font-variant:normal;font-weight:normal;font-stretch:normal;font-family:'Vice City Sans';-inkscape-font-specification:'Vice City Sans';stroke:none;stroke-width:0.04289717" id="path847" />
        <path d="m 137.12474,-54.792127 h 0.33975 c 0.28827,0 0.28998,0.312291 0,0.312291 h -0.33975 z m 0.33975,-0.216202 c -0.18875,0 -0.3775,0.0017 -0.56624,0.0017 v 1.201121 h 0.22649 v -0.466722 h 0.33975 c 0.58855,0 0.58683,-0.736115 0,-0.736115 z" style="font-style:normal;font-variant:normal;font-weight:normal;font-stretch:normal;font-family:'Vice City Sans';-inkscape-font-specification:'Vice City Sans';stroke:none;stroke-width:0.04289717" id="path849" />
        <path d="m 138.62234,-55.030636 c -0.41525,0 -0.61772,0.31744 -0.61772,0.633163 0,0.315723 0.19561,0.619435 0.61772,0.619435 0.42211,0 0.61257,-0.310576 0.616,-0.621151 0.003,-0.314007 -0.20247,-0.631447 -0.616,-0.631447 z m 0,0.205907 c 0.28312,0 0.39637,0.226497 0.39294,0.428972 -0.003,0.197327 -0.10982,0.410096 -0.39294,0.410096 -0.28312,0 -0.38951,-0.211054 -0.39466,-0.408381 -0.005,-0.202474 0.11154,-0.430687 0.39466,-0.430687 z" style="font-style:normal;font-variant:normal;font-weight:normal;font-stretch:normal;font-family:'Vice City Sans';-inkscape-font-specification:'Vice City Sans';stroke:none;stroke-width:0.04289717" id="path851" />
        <path d="m 140.19436,-54.261918 -0.54737,-0.744695 h -0.22478 v 1.201121 h 0.2265 v -0.809899 l 0.54565,0.811614 v -0.0017 h 0.2265 v -1.202837 h -0.2265 z" style="font-style:normal;font-variant:normal;font-weight:normal;font-stretch:normal;font-family:'Vice City Sans';-inkscape-font-specification:'Vice City Sans';stroke:none;stroke-width:0.04289717" id="path853" />
        <path d="m 141.52398,-54.028558 h -0.67434 v -0.27111 h 0.65032 v -0.211054 h -0.65032 v -0.276258 h 0.67434 v -0.219633 h -0.89912 v 1.201121 h 0.89912 z" style="font-style:normal;font-variant:normal;font-weight:normal;font-stretch:normal;font-family:'Vice City Sans';-inkscape-font-specification:'Vice City Sans';stroke:none;stroke-width:0.04289717" id="path855" />
        <path d="m 142.52354,-54.261918 -0.54737,-0.744695 h -0.22478 v 1.201121 h 0.2265 v -0.809899 l 0.54565,0.811614 v -0.0017 h 0.2265 v -1.202837 h -0.2265 z" style="font-style:normal;font-variant:normal;font-weight:normal;font-stretch:normal;font-family:'Vice City Sans';-inkscape-font-specification:'Vice City Sans';stroke:none;stroke-width:0.04289717" id="path857" />
        <path d="m 143.26805,-53.805492 h 0.2265 v -0.995215 h 0.38092 v -0.205906 h -0.98835 v 0.205906 h 0.38093 z" style="font-style:normal;font-variant:normal;font-weight:normal;font-stretch:normal;font-family:'Vice City Sans';-inkscape-font-specification:'Vice City Sans';stroke:none;stroke-width:0.04289717" id="path859" />
        <path d="m 144.93458,-54.809286 c -0.091,-0.185316 -0.28484,-0.238508 -0.47187,-0.238508 -0.22135,0.0017 -0.46501,0.102953 -0.46501,0.350041 0,0.269394 0.2265,0.334597 0.47187,0.363767 0.15958,0.01716 0.27797,0.06349 0.27797,0.176737 0,0.130407 -0.13384,0.180168 -0.27625,0.180168 -0.14585,0 -0.28484,-0.05834 -0.33803,-0.190463 l -0.18875,0.09781 c 0.0892,0.219634 0.27797,0.295133 0.52334,0.295133 0.26768,0 0.50447,-0.114965 0.50447,-0.382643 0,-0.286553 -0.23336,-0.351757 -0.48388,-0.382643 -0.14413,-0.01716 -0.26767,-0.04633 -0.26767,-0.150998 0,-0.08923 0.0806,-0.159577 0.2488,-0.159577 0.13041,0 0.24366,0.0652 0.28484,0.133839 z" style="font-style:normal;font-variant:normal;font-weight:normal;font-stretch:normal;font-family:'Vice City Sans';-inkscape-font-specification:'Vice City Sans';stroke:none;stroke-width:0.04289717" id="path861" />
      </g>
    </g>
  </g>
</svg>
